# xmcd
#
# Track frame offsets:
#	150
#	13075
#	31350
#	43582
#	62182
#	74892
#	89797
#	102080
#	115682
#	128292
#	146505
#	162632
#
# Disc length: 2330 seconds
# Revision: 0
# Processed by: cddbd v1.5.2PL0 Copyright (c) Steve Scherf et al.
# Submitted via: dBpowerAMP V12.0
#
DISCID=ab09180c
DTITLE=Parmley, David and Continental Divide - Three Silver Dollars
DYEAR=2008
DGENRE=Bluegrass
TTITLE0=Three Silver Dollars
TTITLE1=What You Can See From Your Knees
TTITLE2=Refill Of Your Love
TTITLE3=Meadow On The Mountain
TTITLE4=Winsborough Cotton Mill BLlues
TTITLE5=She's Lying In The Cold Cold Ground
TTITLE6=Ain't Gonna Let You Drag Me Down
TTITLE7=Lilly Still Blooms In The Dell
TTITLE8=Carolina Rain
TTITLE9=Anniversary Of The Blues
TTITLE10=That's Just Me
TTITLE11=God Reached Down
EXTD=
EXTT0=
EXTT1=
EXTT2=
EXTT3=
EXTT4=
EXTT5=
EXTT6=
EXTT7=
EXTT8=
EXTT9=
EXTT10=
EXTT11=
PLAYORDER=
